solid AssimpScene
 facet normal 0 0 1
  outer loop
  vertex -0.0677349 0.0509732 0.286487
  vertex -0.0482699 0.0282876 0.2865
  vertex -0.062951 0.0565879 0.2865
  endloop
 endfacet

 facet normal 0 0 1
  outer loop
  vertex -0.0677349 0.0509732 0.286487
  vertex -0.0713459 0.0436808 0.286489
  vertex -0.0482699 0.0282876 0.2865
  endloop
 endfacet

 facet normal 0 0 1
  outer loop
  vertex -0.0355575 0.0368571 0.2865
  vertex -0.062951 0.0565879 0.2865
  vertex -0.0482699 0.0282876 0.2865
  endloop
 endfacet

 facet normal 0 0 1
  outer loop
  vertex -0.0713459 0.0436808 0.286489
  vertex -0.0735738 0.0132269 0.2865
  vertex -0.0482699 0.0282876 0.2865
  endloop
 endfacet

 facet normal 0 0 1
  outer loop
  vertex -0.0568473 0.0155805 0.2865
  vertex -0.0482699 0.0282876 0.2865
  vertex -0.0735738 0.0132269 0.2865
  endloop
 endfacet

 facet normal 0 0 1
  outer loop
  vertex -0.062951 0.0565879 0.2865
  vertex -0.0355575 0.0368571 0.2865
  vertex -0.0189829 0.0589502 0.2865
  endloop
 endfacet

 facet normal 0 0 1
  outer loop
  vertex -0.0199749 0.040005 0.2865
  vertex -0.0189829 0.0589502 0.2865
  vertex -0.0355575 0.0368571 0.2865
  endloop
 endfacet

 facet normal 0 0 1
  outer loop
  vertex 0.0250336 0.0577922 0.2865
  vertex -0.0189829 0.0589502 0.2865
  vertex -0.0043964 0.0368376 0.2865
  endloop
 endfacet

 facet normal 0 0 1
  outer loop
  vertex -0.0199749 0.040005 0.2865
  vertex -0.0043964 0.0368376 0.2865
  vertex -0.0189829 0.0589502 0.2865
  endloop
 endfacet

 facet normal 0 0 1
  outer loop
  vertex 0.0352504 0.0453074 0.286493
  vertex 0.0250336 0.0577922 0.2865
  vertex 0.0083052 0.0282522 0.2865
  endloop
 endfacet

 facet normal 0 0 1
  outer loop
  vertex -0.0043964 0.0368376 0.2865
  vertex 0.0083052 0.0282522 0.2865
  vertex 0.0250336 0.0577922 0.2865
  endloop
 endfacet

 facet normal 0 0 1
  outer loop
  vertex 0.0352504 0.0453074 0.286493
  vertex 0.0083052 0.0282522 0.2865
  vertex 0.0374343 0.0249241 0.286498
  endloop
 endfacet

 facet normal 0 0 1
  outer loop
  vertex 0.0168668 0.0155345 0.2865
  vertex 0.0374343 0.0249241 0.286498
  vertex 0.0083052 0.0282522 0.2865
  endloop
 endfacet

 facet normal 0 0 1
  outer loop
  vertex 0.0374343 0.0249241 0.286498
  vertex 0.0168668 0.0155345 0.2865
  vertex 0.0382359 -0.00532871 0.286498
  endloop
 endfacet

 facet normal 0 0 1
  outer loop
  vertex 0.02 -2.5e-05 0.2865
  vertex 0.0382359 -0.00532871 0.286498
  vertex 0.0168668 0.0155345 0.2865
  endloop
 endfacet

 facet normal 0 0 1
  outer loop
  vertex 0.0168473 -0.0155805 0.2865
  vertex 0.0382359 -0.00532871 0.286498
  vertex 0.02 -2.5e-05 0.2865
  endloop
 endfacet

 facet normal 0 0 1
  outer loop
  vertex 0.0382359 -0.00532871 0.286498
  vertex 0.0168473 -0.0155805 0.2865
  vertex 0.0366956 -0.0364197 0.286499
  endloop
 endfacet

 facet normal 0 0 1
  outer loop
  vertex 0.0082699 -0.0282876 0.2865
  vertex 0.0366956 -0.0364197 0.286499
  vertex 0.0168473 -0.0155805 0.2865
  endloop
 endfacet

 facet normal 0 0 1
  outer loop
  vertex 0.0315769 -0.0452374 0.2865
  vertex 0.0366956 -0.0364197 0.286499
  vertex 0.0082699 -0.0282876 0.2865
  endloop
 endfacet

 facet normal 0 0 1
  outer loop
  vertex 0.0315769 -0.0452374 0.2865
  vertex 0.0082699 -0.0282876 0.2865
  vertex 0.025175 -0.0531847 0.286477
  endloop
 endfacet

 facet normal 0 0 1
  outer loop
  vertex -0.0044425 -0.0368571 0.2865
  vertex 0.025175 -0.0531847 0.286477
  vertex 0.0082699 -0.0282876 0.2865
  endloop
 endfacet

 facet normal 0 0 1
  outer loop
  vertex 0.025175 -0.0531847 0.286477
  vertex -0.0044425 -0.0368571 0.2865
  vertex -0.018987 -0.0539451 0.2865
  endloop
 endfacet

 facet normal 0 0 1
  outer loop
  vertex -0.0200251 -0.040005 0.2865
  vertex -0.018987 -0.0539451 0.2865
  vertex -0.0044425 -0.0368571 0.2865
  endloop
 endfacet

 facet normal 0 0 1
  outer loop
  vertex -0.062951 -0.0514728 0.2865
  vertex -0.018987 -0.0539451 0.2865
  vertex -0.0356036 -0.0368376 0.2865
  endloop
 endfacet

 facet normal 0 0 1
  outer loop
  vertex -0.0200251 -0.040005 0.2865
  vertex -0.0356036 -0.0368376 0.2865
  vertex -0.018987 -0.0539451 0.2865
  endloop
 endfacet

 facet normal 0 0 1
  outer loop
  vertex -0.0684121 -0.0445191 0.2865
  vertex -0.062951 -0.0514728 0.2865
  vertex -0.0483052 -0.0282522 0.2865
  endloop
 endfacet

 facet normal 0 0 1
  outer loop
  vertex -0.0356036 -0.0368376 0.2865
  vertex -0.0483052 -0.0282522 0.2865
  vertex -0.062951 -0.0514728 0.2865
  endloop
 endfacet

 facet normal 0 0 1
  outer loop
  vertex -0.0483052 -0.0282522 0.2865
  vertex -0.0726453 -0.0346966 0.286502
  vertex -0.0684121 -0.0445191 0.2865
  endloop
 endfacet

 facet normal 0 0 1
  outer loop
  vertex -0.0483052 -0.0282522 0.2865
  vertex -0.0568668 -0.0155345 0.2865
  vertex -0.0726453 -0.0346966 0.286502
  endloop
 endfacet

 facet normal 0 0 1
  outer loop
  vertex -0.0735738 0.0132269 0.2865
  vertex -0.0726453 -0.0346966 0.286502
  vertex -0.06 2.5e-05 0.2865
  endloop
 endfacet

 facet normal 0 0 1
  outer loop
  vertex -0.0568668 -0.0155345 0.2865
  vertex -0.06 2.5e-05 0.2865
  vertex -0.0726453 -0.0346966 0.286502
  endloop
 endfacet

 facet normal 0 0 1
  outer loop
  vertex -0.06 2.5e-05 0.2865
  vertex -0.0568473 0.0155805 0.2865
  vertex -0.0735738 0.0132269 0.2865
  endloop
 endfacet

 facet normal 0.503423 0 0.86404
  outer loop
  vertex 0.0155575 0.09 0.036857
  vertex 0.0155575 0.0585 0.036857
  vertex 0.0282699 0.09 0.0282881
  endloop
 endfacet

 facet normal 0.264 0 0.964523
  outer loop
  vertex 0.0155575 0.0585 0.036857
  vertex 0.0155575 0.09 0.036857
  vertex -2.50768e-05 0.0585 0.0400051
  endloop
 endfacet

 facet normal 0.131674 0 0.991293
  outer loop
  vertex -2.50768e-05 0.09 0.0400051
  vertex -2.50768e-05 0.0585 0.0400051
  vertex 0.0155575 0.09 0.036857
  endloop
 endfacet

 facet normal 0.611053 0 0.79159
  outer loop
  vertex 0.0282699 0.0585 0.0282881
  vertex 0.0282699 0.09 0.0282881
  vertex 0.0155575 0.0585 0.036857
  endloop
 endfacet

 facet normal 0.863728 0 0.503959
  outer loop
  vertex 0.0368473 0.09 0.015581
  vertex 0.0282699 0.09 0.0282881
  vertex 0.0368473 0.0585 0.015581
  endloop
 endfacet

 facet normal 0.791206 0 0.61155
  outer loop
  vertex 0.0282699 0.0585 0.0282881
  vertex 0.0368473 0.0585 0.015581
  vertex 0.0282699 0.09 0.0282881
  endloop
 endfacet

 facet normal 0.964303 0 0.264801
  outer loop
  vertex 0.0368473 0.09 0.015581
  vertex 0.0368473 0.0585 0.015581
  vertex 0.04 0.09 2.5034e-05
  endloop
 endfacet

 facet normal 0.991153 0 0.132725
  outer loop
  vertex 0.04 0.0585 2.5034e-05
  vertex 0.04 0.09 2.5034e-05
  vertex 0.0368473 0.0585 0.015581
  endloop
 endfacet

 facet normal 0.964634 0 -0.263593
  outer loop
  vertex 0.0368668 0.09 -0.015534
  vertex 0.04 0.09 2.5034e-05
  vertex 0.0368668 0.0585 -0.015534
  endloop
 endfacet

 facet normal 0.99132 0 -0.131472
  outer loop
  vertex 0.04 0.0585 2.5034e-05
  vertex 0.0368668 0.0585 -0.015534
  vertex 0.04 0.09 2.5034e-05
  endloop
 endfacet

 facet normal 0.791971 0 -0.610559
  outer loop
  vertex 0.0283052 0.09 -0.028252
  vertex 0.0368668 0.09 -0.015534
  vertex 0.0283052 0.0585 -0.028252
  endloop
 endfacet

 facet normal 0.864355 0 -0.502882
  outer loop
  vertex 0.0368668 0.0585 -0.015534
  vertex 0.0283052 0.0585 -0.028252
  vertex 0.0368668 0.09 -0.015534
  endloop
 endfacet

 facet normal 0.612044 0 -0.790824
  outer loop
  vertex 0.0283052 0.09 -0.028252
  vertex 0.0283052 0.0585 -0.028252
  vertex 0.0156036 0.09 -0.036838
  endloop
 endfacet

 facet normal 0.5045 0 -0.863412
  outer loop
  vertex 0.0156036 0.0585 -0.036838
  vertex 0.0156036 0.09 -0.036838
  vertex 0.0283052 0.0585 -0.028252
  endloop
 endfacet

 facet normal 0.265209 0 -0.964191
  outer loop
  vertex 0.0156036 0.09 -0.036838
  vertex 0.0156036 0.0585 -0.036838
  vertex 2.51085e-05 0.09 -0.040005
  endloop
 endfacet

 facet normal 0.132931 0 -0.991125
  outer loop
  vertex 2.50489e-05 0.0585 -0.040005
  vertex 2.51085e-05 0.09 -0.040005
  vertex 0.0156036 0.0585 -0.036838
  endloop
 endfacet

 facet normal -0.131674 0 -0.991293
  outer loop
  vertex 2.51085e-05 0.09 -0.040005
  vertex 2.50489e-05 0.0585 -0.040005
  vertex -0.0155575 0.09 -0.0368569
  endloop
 endfacet

 facet normal -0.263999 0 -0.964523
  outer loop
  vertex -0.0155575 0.0585 -0.0368569
  vertex -0.0155575 0.09 -0.0368569
  vertex 2.50489e-05 0.0585 -0.040005
  endloop
 endfacet

 facet normal -0.503423 0 -0.86404
  outer loop
  vertex -0.0155575 0.09 -0.0368569
  vertex -0.0155575 0.0585 -0.0368569
  vertex -0.0282699 0.09 -0.028288
  endloop
 endfacet

 facet normal -0.611053 0 -0.79159
  outer loop
  vertex -0.0282699 0.0585 -0.028288
  vertex -0.0282699 0.09 -0.028288
  vertex -0.0155575 0.0585 -0.0368569
  endloop
 endfacet

 facet normal -0.863728 0 -0.503959
  outer loop
  vertex -0.0368473 0.09 -0.015581
  vertex -0.0282699 0.09 -0.028288
  vertex -0.0368473 0.0585 -0.015581
  endloop
 endfacet

 facet normal -0.791206 0 -0.61155
  outer loop
  vertex -0.0282699 0.0585 -0.028288
  vertex -0.0368473 0.0585 -0.015581
  vertex -0.0282699 0.09 -0.028288
  endloop
 endfacet

 facet normal -0.964303 0 -0.264801
  outer loop
  vertex -0.0368473 0.09 -0.015581
  vertex -0.0368473 0.0585 -0.015581
  vertex -0.04 0.09 -2.49743e-05
  endloop
 endfacet

 facet normal -0.991153 0 -0.132725
  outer loop
  vertex -0.04 0.0585 -2.49743e-05
  vertex -0.04 0.09 -2.49743e-05
  vertex -0.0368473 0.0585 -0.015581
  endloop
 endfacet

 facet normal -0.99132 0 0.131472
  outer loop
  vertex -0.04 0.09 -2.49743e-05
  vertex -0.04 0.0585 -2.49743e-05
  vertex -0.0368668 0.09 0.015534
  endloop
 endfacet

 facet normal -0.964634 0 0.263593
  outer loop
  vertex -0.0368668 0.0585 0.015534
  vertex -0.0368668 0.09 0.015534
  vertex -0.04 0.0585 -2.49743e-05
  endloop
 endfacet

 facet normal -0.791971 0 0.610559
  outer loop
  vertex -0.0283052 0.09 0.0282521
  vertex -0.0368668 0.09 0.015534
  vertex -0.0283052 0.0585 0.0282521
  endloop
 endfacet

 facet normal -0.864355 0 0.502882
  outer loop
  vertex -0.0368668 0.0585 0.015534
  vertex -0.0283052 0.0585 0.0282521
  vertex -0.0368668 0.09 0.015534
  endloop
 endfacet

 facet normal -0.5045 0 0.863412
  outer loop
  vertex -0.0156036 0.09 0.0368381
  vertex -0.0283052 0.09 0.0282521
  vertex -0.0156036 0.0585 0.0368381
  endloop
 endfacet

 facet normal -0.612044 0 0.790824
  outer loop
  vertex -0.0283052 0.0585 0.0282521
  vertex -0.0156036 0.0585 0.0368381
  vertex -0.0283052 0.09 0.0282521
  endloop
 endfacet

 facet normal -0.26521 0 0.964191
  outer loop
  vertex -0.0156036 0.0585 0.0368381
  vertex -2.50768e-05 0.0585 0.0400051
  vertex -0.0156036 0.09 0.0368381
  endloop
 endfacet

 facet normal -0.132931 0 0.991125
  outer loop
  vertex -2.50768e-05 0.09 0.0400051
  vertex -0.0156036 0.09 0.0368381
  vertex -2.50768e-05 0.0585 0.0400051
  endloop
 endfacet

 facet normal 0 1 0
  outer loop
  vertex -0.0368668 0.09 0.015534
  vertex -0.0283052 0.09 0.0282521
  vertex -0.04 0.09 -2.49743e-05
  endloop
 endfacet

 facet normal 0 1 0
  outer loop
  vertex -0.0156036 0.09 0.0368381
  vertex 2.51085e-05 0.09 -0.040005
  vertex -0.0283052 0.09 0.0282521
  endloop
 endfacet

 facet normal 0 1 0
  outer loop
  vertex 2.51085e-05 0.09 -0.040005
  vertex -0.0155575 0.09 -0.0368569
  vertex -0.0283052 0.09 0.0282521
  endloop
 endfacet

 facet normal 0 1 0
  outer loop
  vertex -0.0155575 0.09 -0.0368569
  vertex -0.0282699 0.09 -0.028288
  vertex -0.0283052 0.09 0.0282521
  endloop
 endfacet

 facet normal 0 1 0
  outer loop
  vertex -0.0282699 0.09 -0.028288
  vertex -0.0368473 0.09 -0.015581
  vertex -0.0283052 0.09 0.0282521
  endloop
 endfacet

 facet normal 0 1 0
  outer loop
  vertex -0.0368473 0.09 -0.015581
  vertex -0.04 0.09 -2.49743e-05
  vertex -0.0283052 0.09 0.0282521
  endloop
 endfacet

 facet normal 0 1 0
  outer loop
  vertex -0.0156036 0.09 0.0368381
  vertex -2.50768e-05 0.09 0.0400051
  vertex 2.51085e-05 0.09 -0.040005
  endloop
 endfacet

 facet normal 0 1 0
  outer loop
  vertex 0.0156036 0.09 -0.036838
  vertex 2.51085e-05 0.09 -0.040005
  vertex -2.50768e-05 0.09 0.0400051
  endloop
 endfacet

 facet normal 0 1 0
  outer loop
  vertex 0.0156036 0.09 -0.036838
  vertex -2.50768e-05 0.09 0.0400051
  vertex 0.0283052 0.09 -0.028252
  endloop
 endfacet

 facet normal 0 1 0
  outer loop
  vertex -2.50768e-05 0.09 0.0400051
  vertex 0.0155575 0.09 0.036857
  vertex 0.0283052 0.09 -0.028252
  endloop
 endfacet

 facet normal 0 1 0
  outer loop
  vertex 0.0155575 0.09 0.036857
  vertex 0.0282699 0.09 0.0282881
  vertex 0.0283052 0.09 -0.028252
  endloop
 endfacet

 facet normal 0 1 0
  outer loop
  vertex 0.0282699 0.09 0.0282881
  vertex 0.0368473 0.09 0.015581
  vertex 0.0283052 0.09 -0.028252
  endloop
 endfacet

 facet normal 0 1 0
  outer loop
  vertex 0.0368473 0.09 0.015581
  vertex 0.04 0.09 2.5034e-05
  vertex 0.0283052 0.09 -0.028252
  endloop
 endfacet

 facet normal 0 1 0
  outer loop
  vertex 0.0368668 0.09 -0.015534
  vertex 0.0283052 0.09 -0.028252
  vertex 0.04 0.09 2.5034e-05
  endloop
 endfacet

 facet normal -0.999098 -0.0424154 0.00178161
  outer loop
  vertex -0.0750945 0.00134374 0.000614583
  vertex -0.0739837 -0.0400748 -0.000125051
  vertex -0.0736296 -0.036768 0.0122024
  endloop
 endfacet

 facet normal -0.999942 -0.0105748 0.00209603
  outer loop
  vertex -0.0750945 0.00134374 0.000614583
  vertex -0.0746993 -0.018832 0.0567031
  vertex -0.0747311 0.00149742 0.108833
  endloop
 endfacet

 facet normal -0.999847 0.0173288 0.00231784
  outer loop
  vertex -0.0750945 0.00134374 0.000614583
  vertex -0.0747311 0.00149742 0.108833
  vertex -0.0744759 0.0233766 0.063096
  endloop
 endfacet

 facet normal -0.999115 0.0418486 0.00419927
  outer loop
  vertex -0.0736745 0.0381397 0.00181383
  vertex -0.0750945 0.00134374 0.000614583
  vertex -0.0744759 0.0233766 0.063096
  endloop
 endfacet

 facet normal -0.999364 -0.0356245 0.00144435
  outer loop
  vertex -0.0736296 -0.036768 0.0122024
  vertex -0.0746993 -0.018832 0.0567031
  vertex -0.0750945 0.00134374 0.000614583
  endloop
 endfacet

 facet normal -0.991136 -0.0291821 -0.129606
  outer loop
  vertex -0.0690463 -0.0207151 -0.0289276
  vertex -0.0739837 -0.0400748 -0.000125051
  vertex -0.0750945 0.00134374 0.000614583
  endloop
 endfacet

 facet normal -0.96475 0.00497386 -0.263121
  outer loop
  vertex -0.0690463 -0.0207151 -0.0289276
  vertex -0.0750945 0.00134374 0.000614583
  vertex -0.0686643 0.0220372 -0.0290635
  endloop
 endfacet

 facet normal -0.990758 0.0414603 -0.129153
  outer loop
  vertex -0.0750945 0.00134374 0.000614583
  vertex -0.0736745 0.0381397 0.00181383
  vertex -0.0686643 0.0220372 -0.0290635
  endloop
 endfacet

 facet normal -0.997896 -0.0647207 0.00377146
  outer loop
  vertex -0.0736296 -0.036768 0.0122024
  vertex -0.0733138 -0.0365 0.109
  vertex -0.0746993 -0.018832 0.0567031
  endloop
 endfacet

 facet normal -0.999202 -0.0396978 0.0044255
  outer loop
  vertex -0.0733138 -0.0365 0.109
  vertex -0.0747311 0.00149742 0.108833
  vertex -0.0746993 -0.018832 0.0567031
  endloop
 endfacet

 facet normal -0.999085 -0.0424638 0.00511294
  outer loop
  vertex -0.0747311 0.00149742 0.108833
  vertex -0.0733138 -0.0365 0.109
  vertex -0.0740078 -0.0225383 0.236388
  endloop
 endfacet

 facet normal -0.997132 -0.0749687 0.0103996
  outer loop
  vertex -0.0726453 -0.0346966 0.286502
  vertex -0.0740078 -0.0225383 0.236388
  vertex -0.0733138 -0.0365 0.109
  endloop
 endfacet

 facet normal -0.999967 -0.00686575 0.0043304
  outer loop
  vertex -0.0743051 0.0133031 0.23736
  vertex -0.0747311 0.00149742 0.108833
  vertex -0.0740078 -0.0225383 0.236388
  endloop
 endfacet

 facet normal -0.999163 -0.0385846 0.01357
  outer loop
  vertex -0.0726453 -0.0346966 0.286502
  vertex -0.0735738 0.0132269 0.2865
  vertex -0.0740078 -0.0225383 0.236388
  endloop
 endfacet

 facet normal -0.999958 0.000477925 0.00918462
  outer loop
  vertex -0.0740078 -0.0225383 0.236388
  vertex -0.0735738 0.0132269 0.2865
  vertex -0.0743051 0.0133031 0.23736
  endloop
 endfacet

 facet normal -0.999536 0.0303189 0.00280901
  outer loop
  vertex -0.0743051 0.0133031 0.23736
  vertex -0.073694 0.0291915 0.228983
  vertex -0.0747311 0.00149742 0.108833
  endloop
 endfacet

 facet normal -0.997595 0.067702 0.014836
  outer loop
  vertex -0.0735738 0.0132269 0.2865
  vertex -0.0713459 0.0436808 0.286489
  vertex -0.0743051 0.0133031 0.23736
  endloop
 endfacet

 facet normal -0.996623 0.0816098 0.00903522
  outer loop
  vertex -0.0743051 0.0133031 0.23736
  vertex -0.0713459 0.0436808 0.286489
  vertex -0.073694 0.0291915 0.228983
  endloop
 endfacet

 facet normal -0.998324 0.0577174 0.00423844
  outer loop
  vertex -0.0727859 0.041876 0.110818
  vertex -0.0747311 0.00149742 0.108833
  vertex -0.073694 0.0291915 0.228983
  endloop
 endfacet

 facet normal -0.993996 0.108915 0.0104549
  outer loop
  vertex -0.0727859 0.041876 0.110818
  vertex -0.073694 0.0291915 0.228983
  vertex -0.0713459 0.0436808 0.286489
  endloop
 endfacet

 facet normal -0.997106 0.0756828 0.00717201
  outer loop
  vertex -0.0736745 0.0381397 0.00181383
  vertex -0.0744759 0.0233766 0.063096
  vertex -0.0727859 0.041876 0.110818
  endloop
 endfacet

 facet normal -0.998674 0.051202 0.00529462
  outer loop
  vertex -0.0727859 0.041876 0.110818
  vertex -0.0744759 0.0233766 0.063096
  vertex -0.0747311 0.00149742 0.108833
  endloop
 endfacet

 facet normal -0.989095 0.0702928 -0.129423
  outer loop
  vertex -0.0730557 0.0446464 0
  vertex -0.0686643 0.0220372 -0.0290635
  vertex -0.0736745 0.0381397 0.00181383
  endloop
 endfacet

 facet normal -0.984755 0.0893386 0.149254
  outer loop
  vertex -0.0736745 0.0381397 0.00181383
  vertex -0.0655427 0.0486039 0.031319
  vertex -0.0730557 0.0446464 0
  endloop
 endfacet

 facet normal -0.960333 0.0875657 -0.264752
  outer loop
  vertex -0.0660626 0.0584876 -0.0281727
  vertex -0.0686643 0.0220372 -0.0290635
  vertex -0.0730557 0.0446464 0
  endloop
 endfacet

 facet normal -0.954457 0.109922 0.27736
  outer loop
  vertex -0.0659054 0.0585 0.027832
  vertex -0.0730557 0.0446464 0
  vertex -0.0655427 0.0486039 0.031319
  endloop
 endfacet

 facet normal -0.983775 0.122678 0.130905
  outer loop
  vertex -0.0659054 0.0585 0.027832
  vertex -0.0715303 0.0585 0
  vertex -0.0730557 0.0446464 0
  endloop
 endfacet

 facet normal -0.983991 0.119301 -0.132394
  outer loop
  vertex -0.0730557 0.0446464 0
  vertex -0.0715303 0.0585 0
  vertex -0.0660626 0.0584876 -0.0281727
  endloop
 endfacet

 facet normal -0.877949 0.118418 0.463878
  outer loop
  vertex -0.0655427 0.0486039 0.031319
  vertex -0.0595881 0.054517 0.04159
  vertex -0.0659054 0.0585 0.027832
  endloop
 endfacet

 facet normal -0.818536 0.132321 0.559007
  outer loop
  vertex -0.0659054 0.0585 0.027832
  vertex -0.0595881 0.054517 0.04159
  vertex -0.0505696 0.0585 0.05057
  endloop
 endfacet

 facet normal -0.645751 0.132411 0.751979
  outer loop
  vertex -0.0595881 0.054517 0.04159
  vertex -0.0269649 0.0575126 0.0674405
  vertex -0.0505696 0.0585 0.05057
  endloop
 endfacet

 facet normal -0.451224 0.137998 0.881676
  outer loop
  vertex -0.0505696 0.0585 0.05057
  vertex -0.0269649 0.0575126 0.0674405
  vertex -0.0186481 0.0585104 0.0703428
  endloop
 endfacet

 facet normal -0.181995 0.135074 0.973978
  outer loop
  vertex 0.00624791 0.0579132 0.0725493
  vertex -0.0186481 0.0585104 0.0703428
  vertex -0.0269649 0.0575126 0.0674405
  endloop
 endfacet

 facet normal 0.0754755 0.139484 0.987344
  outer loop
  vertex -0.0186481 0.0585104 0.0703428
  vertex 0.00624791 0.0579132 0.0725493
  vertex 0.0278317 0.0585 0.065905
  endloop
 endfacet

 facet normal 0.339075 0.133461 0.931245
  outer loop
  vertex 0.00624791 0.0579132 0.0725493
  vertex 0.0382675 0.0560295 0.0609622
  vertex 0.0278317 0.0585 0.065905
  endloop
 endfacet

 facet normal 0.544757 0.134597 0.827722
  outer loop
  vertex 0.0505697 0.0585 0.05057
  vertex 0.0278317 0.0585 0.065905
  vertex 0.0382675 0.0560295 0.0609622
  endloop
 endfacet

 facet normal 0.662045 0.115738 0.740474
  outer loop
  vertex 0.0382675 0.0560295 0.0609622
  vertex 0.0548181 0.0436676 0.0488188
  vertex 0.0505697 0.0585 0.05057
  endloop
 endfacet

 facet normal 0.798516 0.103953 0.59293
  outer loop
  vertex 0.0505697 0.0585 0.05057
  vertex 0.0548181 0.0436676 0.0488188
  vertex 0.0673146 0.0446464 0.028437
  endloop
 endfacet

 facet normal 0.857525 0.122533 0.499637
  outer loop
  vertex 0.0659054 0.0585 0.027832
  vertex 0.0505697 0.0585 0.05057
  vertex 0.0673146 0.0446464 0.028437
  endloop
 endfacet

 facet normal 0.88874 0.0817852 0.451056
  outer loop
  vertex 0.071432 0.0354634 0.0199449
  vertex 0.0673146 0.0446464 0.028437
  vertex 0.0548181 0.0436676 0.0488188
  endloop
 endfacet

 facet normal 0.970864 0.0807275 0.225622
  outer loop
  vertex 0.0673146 0.0446464 0.028437
  vertex 0.071432 0.0354634 0.0199449
  vertex 0.0734624 0.0414749 0.000243187
  endloop
 endfacet

 facet normal 0.985732 0.103566 0.132688
  outer loop
  vertex 0.0734624 0.0414749 0.000243187
  vertex 0.07153 0.0585 0
  vertex 0.0673146 0.0446464 0.028437
  endloop
 endfacet

 facet normal 0.957077 0.122686 0.262588
  outer loop
  vertex 0.0659054 0.0585 0.027832
  vertex 0.0673146 0.0446464 0.028437
  vertex 0.07153 0.0585 0
  endloop
 endfacet

 facet normal 0.983909 0.0585581 0.168803
  outer loop
  vertex 0.0734624 0.0414749 0.000243187
  vertex 0.071432 0.0354634 0.0199449
  vertex 0.0738483 0.011679 0.0152831
  endloop
 endfacet

 facet normal 0.964608 0.0328015 0.261639
  outer loop
  vertex 0.0738483 0.011679 0.0152831
  vertex 0.071432 0.0354634 0.0199449
  vertex 0.0636385 0.00261412 0.0498459
  endloop
 endfacet

 facet normal 0.960493 0.0532471 0.273164
  outer loop
  vertex 0.0567821 0.0391208 0.0678304
  vertex 0.0636385 0.00261412 0.0498459
  vertex 0.071432 0.0354634 0.0199449
  endloop
 endfacet

 facet normal 0.966892 -0.01234 0.254889
  outer loop
  vertex 0.0738483 0.011679 0.0152831
  vertex 0.0636385 0.00261412 0.0498459
  vertex 0.0724872 -0.0349447 0.0176712
  endloop
 endfacet

 facet normal 0.996583 0.0334838 0.0755068
  outer loop
  vertex 0.0734624 0.0414749 0.000243187
  vertex 0.0738483 0.011679 0.0152831
  vertex 0.0750473 -0.00231188 -5.75185e-05
  endloop
 endfacet

 facet normal 0.9869 -0.015278 0.160608
  outer loop
  vertex 0.0750473 -0.00231188 -5.75185e-05
  vertex 0.0738483 0.011679 0.0152831
  vertex 0.0724872 -0.0349447 0.0176712
  endloop
 endfacet

 facet normal 0.965687 -0.0161979 0.259204
  outer loop
  vertex 0.055503 -0.0361888 0.0745711
  vertex 0.0636385 0.00261412 0.0498459
  vertex 0.0557234 0.0112529 0.0779225
  endloop
 endfacet

 facet normal 0.964316 0.0363037 0.262254
  outer loop
  vertex 0.0557234 0.0112529 0.0779225
  vertex 0.0636385 0.00261412 0.0498459
  vertex 0.0567821 0.0391208 0.0678304
  endloop
 endfacet

 facet normal 0.959135 -0.0471797 0.278989
  outer loop
  vertex 0.0636385 0.00261412 0.0498459
  vertex 0.055503 -0.0361888 0.0745711
  vertex 0.0667709 -0.0363742 0.0338413
  endloop
 endfacet

 facet normal 0.958525 -0.0444247 0.281523
  outer loop
  vertex 0.0636385 0.00261412 0.0498459
  vertex 0.0667709 -0.0363742 0.0338413
  vertex 0.0724872 -0.0349447 0.0176712
  endloop
 endfacet

 facet normal 0.969749 0.0684061 0.234325
  outer loop
  vertex 0.0469918 0.0416045 0.108267
  vertex 0.0557234 0.0112529 0.0779225
  vertex 0.0567821 0.0391208 0.0678304
  endloop
 endfacet

 facet normal 0.975904 0.0416854 0.21418
  outer loop
  vertex 0.0469918 0.0416045 0.108267
  vertex 0.04874 0.00238424 0.109002
  vertex 0.0557234 0.0112529 0.0779225
  endloop
 endfacet

 facet normal 0.973038 -0.0162911 0.230068
  outer loop
  vertex 0.0557234 0.0112529 0.0779225
  vertex 0.04874 0.00238424 0.109002
  vertex 0.055503 -0.0361888 0.0745711
  endloop
 endfacet

 facet normal 0.975472 -0.0490321 0.214595
  outer loop
  vertex 0.0473794 -0.0365005 0.109
  vertex 0.055503 -0.0361888 0.0745711
  vertex 0.04874 0.00238424 0.109002
  endloop
 endfacet

 facet normal 0.984814 0.0378258 0.169442
  outer loop
  vertex 0.04874 0.00238424 0.109002
  vertex 0.0469918 0.0416045 0.108267
  vertex 0.0454915 0.00487735 0.131964
  endloop
 endfacet

 facet normal 0.985491 -0.0219904 0.168295
  outer loop
  vertex 0.04874 0.00238424 0.109002
  vertex 0.0454915 0.00487735 0.131964
  vertex 0.0473794 -0.0365005 0.109
  endloop
 endfacet

 facet normal 0.98855 0.0694143 0.133982
  outer loop
  vertex 0.0421726 0.0423252 0.14127
  vertex 0.0454915 0.00487735 0.131964
  vertex 0.0469918 0.0416045 0.108267
  endloop
 endfacet

 facet normal 0.997264 0.0165027 0.0720578
  outer loop
  vertex 0.0454915 0.00487735 0.131964
  vertex 0.0403588 0.0243514 0.185892
  vertex 0.0426041 -0.00644682 0.163452
  endloop
 endfacet

 facet normal 0.995301 0.0544312 0.0800794
  outer loop
  vertex 0.0454915 0.00487735 0.131964
  vertex 0.0421726 0.0423252 0.14127
  vertex 0.0403588 0.0243514 0.185892
  endloop
 endfacet

 facet normal 0.99527 -0.0250662 0.093861
  outer loop
  vertex 0.0454915 0.00487735 0.131964
  vertex 0.0426041 -0.00644682 0.163452
  vertex 0.0435609 -0.0368734 0.134611
  endloop
 endfacet

 facet normal 0.989416 -0.046307 0.137519
  outer loop
  vertex 0.0473794 -0.0365005 0.109
  vertex 0.0454915 0.00487735 0.131964
  vertex 0.0435609 -0.0368734 0.134611
  endloop
 endfacet

 facet normal 0.994144 0.0928125 0.0553426
  outer loop
  vertex 0.0421726 0.0423252 0.14127
  vertex 0.0381424 0.0435461 0.199607
  vertex 0.0403588 0.0243514 0.185892
  endloop
 endfacet

 facet normal 0.998702 0.0358638 0.0361686
  outer loop
  vertex 0.0403588 0.0243514 0.185892
  vertex 0.0374343 0.0249241 0.286498
  vertex 0.0382359 -0.00532871 0.286498
  endloop
 endfacet

 facet normal 0.999324 0.0114021 0.0349505
  outer loop
  vertex 0.0403588 0.0243514 0.185892
  vertex 0.0382359 -0.00532871 0.286498
  vertex 0.0403416 -0.00773978 0.206344
  endloop
 endfacet

 facet normal 0.998881 0.00900199 0.0464242
  outer loop
  vertex 0.0403588 0.0243514 0.185892
  vertex 0.0403416 -0.00773978 0.206344
  vertex 0.0426041 -0.00644682 0.163452
  endloop
 endfacet

 facet normal 0.996146 0.079505 0.0370507
  outer loop
  vertex 0.0403588 0.0243514 0.185892
  vertex 0.0381424 0.0435461 0.199607
  vertex 0.0374343 0.0249241 0.286498
  endloop
 endfacet

 facet normal 0.998181 -0.0364435 0.0480266
  outer loop
  vertex 0.0426041 -0.00644682 0.163452
  vertex 0.0403416 -0.00773978 0.206344
  vertex 0.0396333 -0.0365559 0.186097
  endloop
 endfacet

 facet normal 0.995896 -0.0545203 0.0722351
  outer loop
  vertex 0.0435609 -0.0368734 0.134611
  vertex 0.0426041 -0.00644682 0.163452
  vertex 0.0396333 -0.0365559 0.186097
  endloop
 endfacet

 facet normal 0.998645 -0.0410176 0.0320114
  outer loop
  vertex 0.0403416 -0.00773978 0.206344
  vertex 0.0382359 -0.00532871 0.286498
  vertex 0.0366956 -0.0364197 0.286499
  endloop
 endfacet

 facet normal 0.997223 -0.0652155 0.0359626
  outer loop
  vertex 0.0396333 -0.0365559 0.186097
  vertex 0.0403416 -0.00773978 0.206344
  vertex 0.0366956 -0.0364197 0.286499
  endloop
 endfacet

 facet normal 0.992746 0.114261 0.0374052
  outer loop
  vertex 0.0381424 0.0435461 0.199607
  vertex 0.0352504 0.0453074 0.286493
  vertex 0.0374343 0.0249241 0.286498
  endloop
 endfacet

 facet normal 0.995631 -0.0372253 0.0856295
  outer loop
  vertex 0.0750473 -0.00231188 -5.75185e-05
  vertex 0.0724872 -0.0349447 0.0176712
  vertex 0.074382 -0.0292761 -2.19345e-05
  endloop
 endfacet

 facet normal 0.928426 -0.0608407 0.366502
  outer loop
  vertex 0.0667709 -0.0363742 0.0338413
  vertex 0.0678344 -0.0438978 0.028632
  vertex 0.0724872 -0.0349447 0.0176712
  endloop
 endfacet

 facet normal 0.974308 -0.0575008 0.217758
  outer loop
  vertex 0.074382 -0.0292761 -2.19345e-05
  vertex 0.0724872 -0.0349447 0.0176712
  vertex 0.0678344 -0.0438978 0.028632
  endloop
 endfacet

 facet normal 0.990368 0.0411877 -0.132194
  outer loop
  vertex 0.0750473 -0.00231188 -5.75185e-05
  vertex 0.0685799 0.0231793 -0.0291286
  vertex 0.0734624 0.0414749 0.000243187
  endloop
 endfacet

 facet normal 0.964171 0.00329802 -0.265261
  outer loop
  vertex 0.0689742 -0.0205227 -0.0291646
  vertex 0.0685799 0.0231793 -0.0291286
  vertex 0.0750473 -0.00231188 -5.75185e-05
  endloop
 endfacet

 facet normal 0.990842 -0.026141 -0.132474
  outer loop
  vertex 0.0750473 -0.00231188 -5.75185e-05
  vertex 0.074382 -0.0292761 -2.19345e-05
  vertex 0.0689742 -0.0205227 -0.0291646
  endloop
 endfacet

 facet normal 0.989663 -0.0534121 -0.133097
  outer loop
  vertex 0.074382 -0.0292761 -2.19345e-05
  vertex 0.0726316 -0.0584956 -0.000130951
  vertex 0.0689742 -0.0205227 -0.0291646
  endloop
 endfacet

 facet normal 0.989313 -0.0643917 0.130816
  outer loop
  vertex 0.0726316 -0.0584956 -0.000130951
  vertex 0.074382 -0.0292761 -2.19345e-05
  vertex 0.0678344 -0.0438978 0.028632
  endloop
 endfacet

 facet normal 0.841363 -0.0626154 0.536831
  outer loop
  vertex 0.0667709 -0.0363742 0.0338413
  vertex 0.049419 -0.0470562 0.0550303
  vertex 0.0678344 -0.0438978 0.028632
  endloop
 endfacet

 facet normal 0.852885 -0.0731568 0.516948
  outer loop
  vertex 0.0678344 -0.0438978 0.028632
  vertex 0.049419 -0.0470562 0.0550303
  vertex 0.0668321 -0.0585 0.028208
  endloop
 endfacet

 facet normal 0.961702 -0.0786881 0.262559
  outer loop
  vertex 0.0668321 -0.0585 0.028208
  vertex 0.0726316 -0.0584956 -0.000130951
  vertex 0.0678344 -0.0438978 0.028632
  endloop
 endfacet

 facet normal 0.961953 -0.0677027 -0.264694
  outer loop
  vertex 0.0689742 -0.0205227 -0.0291646
  vertex 0.0726316 -0.0584956 -0.000130951
  vertex 0.0668236 -0.0585 -0.028228
  endloop
 endfacet

 facet normal 0.863338 -0.00455288 -0.504606
  outer loop
  vertex 0.0689742 -0.0205227 -0.0291646
  vertex 0.0529094 -0.017266 -0.0531296
  vertex 0.0685799 0.0231793 -0.0291286
  endloop
 endfacet

 facet normal 0.790357 -0.048237 -0.610745
  outer loop
  vertex 0.0529094 -0.017266 -0.0531296
  vertex 0.0689742 -0.0205227 -0.0291646
  vertex 0.0512728 -0.0585 -0.05128
  endloop
 endfacet

 facet normal 0.862016 -0.0676353 -0.502349
  outer loop
  vertex 0.0668236 -0.0585 -0.028228
  vertex 0.0512728 -0.0585 -0.05128
  vertex 0.0689742 -0.0205227 -0.0291646
  endloop
 endfacet

 facet normal 0.790384 0.0208217 -0.612258
  outer loop
  vertex 0.0526525 0.0227949 -0.0527155
  vertex 0.0685799 0.0231793 -0.0291286
  vertex 0.0529094 -0.017266 -0.0531296
  endloop
 endfacet

 facet normal 0.610643 0.0198533 -0.791657
  outer loop
  vertex 0.0526525 0.0227949 -0.0527155
  vertex 0.0529094 -0.017266 -0.0531296
  vertex 0.0290332 0.0212713 -0.0687177
  endloop
 endfacet

 facet normal 0.502683 -0.00530908 -0.864455
  outer loop
  vertex 0.0289311 -0.020077 -0.0690612
  vertex 0.0290332 0.0212713 -0.0687177
  vertex 0.0529094 -0.017266 -0.0531296
  endloop
 endfacet

 facet normal 0.609684 -0.0663249 -0.789865
  outer loop
  vertex 0.0512728 -0.0585 -0.05128
  vertex 0.0282181 -0.0585 -0.066828
  vertex 0.0529094 -0.017266 -0.0531296
  endloop
 endfacet

 facet normal 0.502223 -0.048028 -0.863404
  outer loop
  vertex 0.0289311 -0.020077 -0.0690612
  vertex 0.0529094 -0.017266 -0.0531296
  vertex 0.0282181 -0.0585 -0.066828
  endloop
 endfacet

 facet normal 0.790052 0.0730001 -0.608678
  outer loop
  vertex 0.0526525 0.0227949 -0.0527155
  vertex 0.0510004 0.0584906 -0.0505295
  vertex 0.0685799 0.0231793 -0.0291286
  endloop
 endfacet

 facet normal 0.502743 0.0717424 -0.861454
  outer loop
  vertex 0.0290332 0.0212713 -0.0687177
  vertex 0.0280357 0.0584881 -0.0661569
  vertex 0.0526525 0.0227949 -0.0527155
  endloop
 endfacet

 facet normal 0.610073 0.100627 -0.78593
  outer loop
  vertex 0.0510004 0.0584906 -0.0505295
  vertex 0.0526525 0.0227949 -0.0527155
  vertex 0.0280357 0.0584881 -0.0661569
  endloop
 endfacet

 facet normal 0.263324 -0.00309529 -0.964703
  outer loop
  vertex 0.0289311 -0.020077 -0.0690612
  vertex -7.17919e-05 -0.0131343 -0.0750642
  vertex 0.0290332 0.0212713 -0.0687177
  endloop
 endfacet

 facet normal 0.26371 0.0757262 -0.961625
  outer loop
  vertex 0.0290332 0.0212713 -0.0687177
  vertex 0 0.0293102 -0.07414
  vertex 0.0280357 0.0584881 -0.0661569
  endloop
 endfacet

 facet normal 0.131802 0.0259877 -0.990935
  outer loop
  vertex -7.17919e-05 -0.0131343 -0.0750642
  vertex 0 0.0293102 -0.07414
  vertex 0.0290332 0.0212713 -0.0687177
  endloop
 endfacet

 facet normal 0.263095 -0.067504 -0.962405
  outer loop
  vertex 0.0282181 -0.0585 -0.066828
  vertex -1.81533e-05 -0.0585 -0.0725307
  vertex 0.0289311 -0.020077 -0.0690612
  endloop
 endfacet

 facet normal 0.131128 -0.045859 -0.990304
  outer loop
  vertex -7.17919e-05 -0.0131343 -0.0750642
  vertex 0.0289311 -0.020077 -0.0690612
  vertex -1.81533e-05 -0.0585 -0.0725307
  endloop
 endfacet

 facet normal -0.264378 -0.0378713 -0.963675
  outer loop
  vertex -0.0292907 -0.00511654 -0.0693153
  vertex -7.17919e-05 -0.0131343 -0.0750642
  vertex -0.0282903 -0.0584993 -0.0669361
  endloop
 endfacet

 facet normal -0.13217 -0.0641983 -0.989146
  outer loop
  vertex -1.81533e-05 -0.0585 -0.0725307
  vertex -0.0282903 -0.0584993 -0.0669361
  vertex -7.17919e-05 -0.0131343 -0.0750642
  endloop
 endfacet

 facet normal -0.132559 0.00954761 -0.991129
  outer loop
  vertex -7.17919e-05 -0.0131343 -0.0750642
  vertex -0.0292907 -0.00511654 -0.0693153
  vertex 0 0.0293102 -0.07414
  endloop
 endfacet

 facet normal 0.131598 0.108053 -0.985397
  outer loop
  vertex 0 0.0585 -0.07153
  vertex 0.0280357 0.0584881 -0.0661569
  vertex 0 0.0293102 -0.07414
  endloop
 endfacet

 facet normal -0.26427 0.0586724 -0.962662
  outer loop
  vertex -0.0281079 0.058456 -0.0663127
  vertex 0 0.0293102 -0.07414
  vertex -0.0292907 -0.00511654 -0.0693153
  endloop
 endfacet

 facet normal -0.131752 0.107396 -0.985448
  outer loop
  vertex 0 0.0585 -0.07153
  vertex 0 0.0293102 -0.07414
  vertex -0.0281079 0.058456 -0.0663127
  endloop
 endfacet

 facet normal -0.50369 -0.0409283 -0.862914
  outer loop
  vertex -0.0292907 -0.00511654 -0.0693153
  vertex -0.0282903 -0.0584993 -0.0669361
  vertex -0.0530664 -0.0192495 -0.0529134
  endloop
 endfacet

 facet normal -0.503639 0.0542808 -0.862207
  outer loop
  vertex -0.0281079 0.058456 -0.0663127
  vertex -0.0292907 -0.00511654 -0.0693153
  vertex -0.0527152 0.0220105 -0.0527179
  endloop
 endfacet

 facet normal -0.61153 0.00212765 -0.791218
  outer loop
  vertex -0.0530664 -0.0192495 -0.0529134
  vertex -0.0527152 0.0220105 -0.0527179
  vertex -0.0292907 -0.00511654 -0.0693153
  endloop
 endfacet

 facet normal -0.610377 -0.0672142 -0.789254
  outer loop
  vertex -0.0530664 -0.0192495 -0.0529134
  vertex -0.0282903 -0.0584993 -0.0669361
  vertex -0.0512882 -0.0585 -0.051265
  endloop
 endfacet

 facet normal -0.863551 -0.0492707 -0.501849
  outer loop
  vertex -0.0690463 -0.0207151 -0.0289276
  vertex -0.0530664 -0.0192495 -0.0529134
  vertex -0.0668321 -0.0585 -0.028208
  endloop
 endfacet

 facet normal -0.789847 -0.0672082 -0.60961
  outer loop
  vertex -0.0512882 -0.0585 -0.051265
  vertex -0.0668321 -0.0585 -0.028208
  vertex -0.0530664 -0.0192495 -0.0529134
  endloop
 endfacet

 facet normal -0.864503 -0.00598846 -0.502593
  outer loop
  vertex -0.0690463 -0.0207151 -0.0289276
  vertex -0.0686643 0.0220372 -0.0290635
  vertex -0.0530664 -0.0192495 -0.0529134
  endloop
 endfacet

 facet normal -0.791348 0.0191067 -0.611067
  outer loop
  vertex -0.0527152 0.0220105 -0.0527179
  vertex -0.0530664 -0.0192495 -0.0529134
  vertex -0.0686643 0.0220372 -0.0290635
  endloop
 endfacet

 facet normal -0.609033 0.100396 -0.786765
  outer loop
  vertex -0.0527152 0.0220105 -0.0527179
  vertex -0.0507603 0.0584917 -0.050682
  vertex -0.0281079 0.058456 -0.0663127
  endloop
 endfacet

 facet normal -0.860726 0.072202 -0.503922
  outer loop
  vertex -0.0686643 0.0220372 -0.0290635
  vertex -0.0660626 0.0584876 -0.0281727
  vertex -0.0527152 0.0220105 -0.0527179
  endloop
 endfacet

 facet normal -0.786511 0.101358 -0.609202
  outer loop
  vertex -0.0507603 0.0584917 -0.050682
  vertex -0.0527152 0.0220105 -0.0527179
  vertex -0.0660626 0.0584876 -0.0281727
  endloop
 endfacet

 facet normal -0.989796 -0.0586759 -0.129852
  outer loop
  vertex -0.0739837 -0.0400748 -0.000125051
  vertex -0.0690463 -0.0207151 -0.0289276
  vertex -0.0725303 -0.0585 1.10269e-05
  endloop
 endfacet

 facet normal -0.962492 -0.0678545 -0.262688
  outer loop
  vertex -0.0668321 -0.0585 -0.028208
  vertex -0.0725303 -0.0585 1.10269e-05
  vertex -0.0690463 -0.0207151 -0.0289276
  endloop
 endfacet

 facet normal -0.988157 -0.0766287 0.132944
  outer loop
  vertex -0.0725303 -0.0585 1.10269e-05
  vertex -0.0668236 -0.0585 0.028228
  vertex -0.0739837 -0.0400748 -0.000125051
  endloop
 endfacet

 facet normal -0.982092 -0.0598091 0.178655
  outer loop
  vertex -0.0736296 -0.036768 0.0122024
  vertex -0.0739837 -0.0400748 -0.000125051
  vertex -0.0679153 -0.0463202 0.0263533
  endloop
 endfacet

 facet normal -0.964164 -0.0708631 0.255666
  outer loop
  vertex -0.0668236 -0.0585 0.028228
  vertex -0.0679153 -0.0463202 0.0263533
  vertex -0.0739837 -0.0400748 -0.000125051
  endloop
 endfacet

 facet normal -0.894287 -0.0776555 0.440705
  outer loop
  vertex -0.0679153 -0.0463202 0.0263533
  vertex -0.0668236 -0.0585 0.028228
  vertex -0.0600371 -0.0554404 0.041144
  endloop
 endfacet

 facet normal -0.824783 -0.0838541 0.559197
  outer loop
  vertex -0.0512728 -0.0585 0.0512801
  vertex -0.0600371 -0.0554404 0.041144
  vertex -0.0668236 -0.0585 0.028228
  endloop
 endfacet

 facet normal -0.677142 -0.083483 0.731101
  outer loop
  vertex -0.0600371 -0.0554404 0.041144
  vertex -0.0512728 -0.0585 0.0512801
  vertex -0.0341767 -0.0572325 0.0651134
  endloop
 endfacet

 facet normal -0.496523 -0.0848717 0.863865
  outer loop
  vertex -0.0216815 -0.058503 0.0703905
  vertex -0.0341767 -0.0572325 0.0651134
  vertex -0.0512728 -0.0585 0.0512801
  endloop
 endfacet

 facet normal -0.223034 -0.0850414 0.971094
  outer loop
  vertex 0.0078775 -0.0577751 0.0728039
  vertex -0.0341767 -0.0572325 0.0651134
  vertex -0.0216815 -0.058503 0.0703905
  endloop
 endfacet

 facet normal 0.0710297 -0.0869381 0.993678
  outer loop
  vertex -0.0216815 -0.058503 0.0703905
  vertex 0.0282383 -0.0585 0.066819
  vertex 0.0078775 -0.0577751 0.0728039
  endloop
 endfacet

 facet normal 0.345498 -0.0842067 0.934634
  outer loop
  vertex 0.0078775 -0.0577751 0.0728039
  vertex 0.0282383 -0.0585 0.066819
  vertex 0.0381472 -0.0566472 0.061733
  endloop
 endfacet

 facet normal 0.545948 -0.0844983 0.833547
  outer loop
  vertex 0.0512882 -0.0585 0.0512651
  vertex 0.0381472 -0.0566472 0.061733
  vertex 0.0282383 -0.0585 0.066819
  endloop
 endfacet

 facet normal 0.635315 -0.0781495 0.768289
  outer loop
  vertex 0.049419 -0.0470562 0.0550303
  vertex 0.0381472 -0.0566472 0.061733
  vertex 0.0512882 -0.0585 0.0512651
  endloop
 endfacet

 facet normal 0.778031 -0.0801326 0.623095
  outer loop
  vertex 0.0512882 -0.0585 0.0512651
  vertex 0.0668321 -0.0585 0.028208
  vertex 0.049419 -0.0470562 0.0550303
  endloop
 endfacet

 facet normal 0.860061 0.102651 -0.499757
  outer loop
  vertex 0.0660468 0.0584939 -0.0278875
  vertex 0.0685799 0.0231793 -0.0291286
  vertex 0.0510004 0.0584906 -0.0505295
  endloop
 endfacet

 facet normal 0.960859 0.087167 -0.262966
  outer loop
  vertex 0.0660468 0.0584939 -0.0278875
  vertex 0.0734624 0.0414749 0.000243187
  vertex 0.0685799 0.0231793 -0.0291286
  endloop
 endfacet

 facet normal 0.984413 0.118459 -0.129997
  outer loop
  vertex 0.0734624 0.0414749 0.000243187
  vertex 0.0660468 0.0584939 -0.0278875
  vertex 0.07153 0.0585 0
  endloop
 endfacet

 facet normal -0.26521 -0.964191 0
  outer loop
  vertex -0.0043964 0.0368376 0.2575
  vertex -0.0043964 0.0368376 0.2865
  vertex -0.0199749 0.0400051 0.2575
  endloop
 endfacet

 facet normal -0.5045 -0.863412 0
  outer loop
  vertex -0.0043964 0.0368376 0.2575
  vertex 0.0083052 0.0282522 0.2575
  vertex -0.0043964 0.0368376 0.2865
  endloop
 endfacet

 facet normal -0.132931 -0.991125 0
  outer loop
  vertex -0.0199749 0.040005 0.2865
  vertex -0.0199749 0.0400051 0.2575
  vertex -0.0043964 0.0368376 0.2865
  endloop
 endfacet

 facet normal -0.612044 -0.790824 0
  outer loop
  vertex 0.0083052 0.0282522 0.2865
  vertex -0.0043964 0.0368376 0.2865
  vertex 0.0083052 0.0282522 0.2575
  endloop
 endfacet

 facet normal 0.264 -0.964523 0
  outer loop
  vertex -0.0355575 0.0368571 0.2575
  vertex -0.0199749 0.0400051 0.2575
  vertex -0.0355575 0.0368571 0.2865
  endloop
 endfacet

 facet normal 0.131674 -0.991293 0
  outer loop
  vertex -0.0199749 0.040005 0.2865
  vertex -0.0355575 0.0368571 0.2865
  vertex -0.0199749 0.0400051 0.2575
  endloop
 endfacet

 facet normal 0.503423 -0.86404 0
  outer loop
  vertex -0.0355575 0.0368571 0.2575
  vertex -0.0355575 0.0368571 0.2865
  vertex -0.0482699 0.0282876 0.2575
  endloop
 endfacet

 facet normal 0.611053 -0.79159 0
  outer loop
  vertex -0.0482699 0.0282876 0.2865
  vertex -0.0482699 0.0282876 0.2575
  vertex -0.0355575 0.0368571 0.2865
  endloop
 endfacet

 facet normal 0.791206 -0.61155 0
  outer loop
  vertex -0.0482699 0.0282876 0.2575
  vertex -0.0482699 0.0282876 0.2865
  vertex -0.0568473 0.0155805 0.2575
  endloop
 endfacet

 facet normal 0.863728 -0.503959 0
  outer loop
  vertex -0.0568473 0.0155805 0.2865
  vertex -0.0568473 0.0155805 0.2575
  vertex -0.0482699 0.0282876 0.2865
  endloop
 endfacet

 facet normal 0.991153 -0.132725 0
  outer loop
  vertex -0.06 2.5e-05 0.2575
  vertex -0.0568473 0.0155805 0.2575
  vertex -0.06 2.5e-05 0.2865
  endloop
 endfacet

 facet normal 0.964303 -0.264801 0
  outer loop
  vertex -0.0568473 0.0155805 0.2865
  vertex -0.06 2.5e-05 0.2865
  vertex -0.0568473 0.0155805 0.2575
  endloop
 endfacet

 facet normal 0.99132 0.131472 0
  outer loop
  vertex -0.06 2.5e-05 0.2575
  vertex -0.06 2.5e-05 0.2865
  vertex -0.0568668 -0.0155345 0.2575
  endloop
 endfacet

 facet normal 0.964634 0.263593 0
  outer loop
  vertex -0.0568668 -0.0155345 0.2865
  vertex -0.0568668 -0.0155345 0.2575
  vertex -0.06 2.5e-05 0.2865
  endloop
 endfacet

 facet normal 0.791971 0.610559 0
  outer loop
  vertex -0.0483052 -0.0282522 0.2575
  vertex -0.0568668 -0.0155345 0.2575
  vertex -0.0483052 -0.0282522 0.2865
  endloop
 endfacet

 facet normal 0.864355 0.502882 0
  outer loop
  vertex -0.0568668 -0.0155345 0.2865
  vertex -0.0483052 -0.0282522 0.2865
  vertex -0.0568668 -0.0155345 0.2575
  endloop
 endfacet

 facet normal 0.612044 0.790824 0
  outer loop
  vertex -0.0483052 -0.0282522 0.2575
  vertex -0.0483052 -0.0282522 0.2865
  vertex -0.0356036 -0.0368376 0.2575
  endloop
 endfacet

 facet normal 0.5045 0.863412 0
  outer loop
  vertex -0.0356036 -0.0368376 0.2865
  vertex -0.0356036 -0.0368376 0.2575
  vertex -0.0483052 -0.0282522 0.2865
  endloop
 endfacet

 facet normal 0.132931 0.991125 0
  outer loop
  vertex -0.020025 -0.040005 0.2575
  vertex -0.0356036 -0.0368376 0.2575
  vertex -0.0200251 -0.040005 0.2865
  endloop
 endfacet

 facet normal 0.265209 0.964191 0
  outer loop
  vertex -0.0356036 -0.0368376 0.2865
  vertex -0.0200251 -0.040005 0.2865
  vertex -0.0356036 -0.0368376 0.2575
  endloop
 endfacet

 facet normal -0.263999 0.964523 0
  outer loop
  vertex -0.0044425 -0.0368571 0.2575
  vertex -0.020025 -0.040005 0.2575
  vertex -0.0044425 -0.0368571 0.2865
  endloop
 endfacet

 facet normal -0.131674 0.991293 0
  outer loop
  vertex -0.0200251 -0.040005 0.2865
  vertex -0.0044425 -0.0368571 0.2865
  vertex -0.020025 -0.040005 0.2575
  endloop
 endfacet

 facet normal -0.503423 0.86404 0
  outer loop
  vertex -0.0044425 -0.0368571 0.2575
  vertex -0.0044425 -0.0368571 0.2865
  vertex 0.0082699 -0.0282876 0.2575
  endloop
 endfacet

 facet normal -0.611053 0.79159 0
  outer loop
  vertex 0.0082699 -0.0282876 0.2865
  vertex 0.0082699 -0.0282876 0.2575
  vertex -0.0044425 -0.0368571 0.2865
  endloop
 endfacet

 facet normal -0.863728 0.503959 0
  outer loop
  vertex 0.0168473 -0.0155805 0.2575
  vertex 0.0082699 -0.0282876 0.2575
  vertex 0.0168473 -0.0155805 0.2865
  endloop
 endfacet

 facet normal -0.791206 0.61155 0
  outer loop
  vertex 0.0082699 -0.0282876 0.2865
  vertex 0.0168473 -0.0155805 0.2865
  vertex 0.0082699 -0.0282876 0.2575
  endloop
 endfacet

 facet normal -0.991153 0.132725 0
  outer loop
  vertex 0.02 -2.5e-05 0.2575
  vertex 0.0168473 -0.0155805 0.2575
  vertex 0.02 -2.5e-05 0.2865
  endloop
 endfacet

 facet normal -0.964303 0.264801 0
  outer loop
  vertex 0.0168473 -0.0155805 0.2865
  vertex 0.02 -2.5e-05 0.2865
  vertex 0.0168473 -0.0155805 0.2575
  endloop
 endfacet

 facet normal -0.99132 -0.131472 0
  outer loop
  vertex 0.02 -2.5e-05 0.2575
  vertex 0.02 -2.5e-05 0.2865
  vertex 0.0168668 0.0155345 0.2575
  endloop
 endfacet

 facet normal -0.964634 -0.263593 0
  outer loop
  vertex 0.0168668 0.0155345 0.2865
  vertex 0.0168668 0.0155345 0.2575
  vertex 0.02 -2.5e-05 0.2865
  endloop
 endfacet

 facet normal -0.791971 -0.610559 0
  outer loop
  vertex 0.0083052 0.0282522 0.2575
  vertex 0.0168668 0.0155345 0.2575
  vertex 0.0083052 0.0282522 0.2865
  endloop
 endfacet

 facet normal -0.864355 -0.502882 0
  outer loop
  vertex 0.0168668 0.0155345 0.2865
  vertex 0.0083052 0.0282522 0.2865
  vertex 0.0168668 0.0155345 0.2575
  endloop
 endfacet

 facet normal 0 0 1
  outer loop
  vertex -0.0568668 -0.0155345 0.2575
  vertex -0.0483052 -0.0282522 0.2575
  vertex -0.06 2.5e-05 0.2575
  endloop
 endfacet

 facet normal 0 0 1
  outer loop
  vertex -0.0356036 -0.0368376 0.2575
  vertex -0.0199749 0.0400051 0.2575
  vertex -0.0483052 -0.0282522 0.2575
  endloop
 endfacet

 facet normal 0 0 1
  outer loop
  vertex -0.0199749 0.0400051 0.2575
  vertex -0.0355575 0.0368571 0.2575
  vertex -0.0483052 -0.0282522 0.2575
  endloop
 endfacet

 facet normal 0 0 1
  outer loop
  vertex -0.0355575 0.0368571 0.2575
  vertex -0.0482699 0.0282876 0.2575
  vertex -0.0483052 -0.0282522 0.2575
  endloop
 endfacet

 facet normal 0 0 1
  outer loop
  vertex -0.0482699 0.0282876 0.2575
  vertex -0.0568473 0.0155805 0.2575
  vertex -0.0483052 -0.0282522 0.2575
  endloop
 endfacet

 facet normal 0 0 1
  outer loop
  vertex -0.0568473 0.0155805 0.2575
  vertex -0.06 2.5e-05 0.2575
  vertex -0.0483052 -0.0282522 0.2575
  endloop
 endfacet

 facet normal 0 0 1
  outer loop
  vertex -0.0356036 -0.0368376 0.2575
  vertex -0.020025 -0.040005 0.2575
  vertex -0.0043964 0.0368376 0.2575
  endloop
 endfacet

 facet normal 0 0 1
  outer loop
  vertex -0.0043964 0.0368376 0.2575
  vertex -0.0199749 0.0400051 0.2575
  vertex -0.0356036 -0.0368376 0.2575
  endloop
 endfacet

 facet normal 0 0 1
  outer loop
  vertex -0.0043964 0.0368376 0.2575
  vertex -0.020025 -0.040005 0.2575
  vertex 0.0083052 0.0282522 0.2575
  endloop
 endfacet

 facet normal 0 0 1
  outer loop
  vertex -0.020025 -0.040005 0.2575
  vertex -0.0044425 -0.0368571 0.2575
  vertex 0.0083052 0.0282522 0.2575
  endloop
 endfacet

 facet normal 0 0 1
  outer loop
  vertex -0.0044425 -0.0368571 0.2575
  vertex 0.0082699 -0.0282876 0.2575
  vertex 0.0083052 0.0282522 0.2575
  endloop
 endfacet

 facet normal 0 0 1
  outer loop
  vertex 0.0082699 -0.0282876 0.2575
  vertex 0.0168473 -0.0155805 0.2575
  vertex 0.0083052 0.0282522 0.2575
  endloop
 endfacet

 facet normal 0 0 1
  outer loop
  vertex 0.0168473 -0.0155805 0.2575
  vertex 0.02 -2.5e-05 0.2575
  vertex 0.0083052 0.0282522 0.2575
  endloop
 endfacet

 facet normal 0 0 1
  outer loop
  vertex 0.0168668 0.0155345 0.2575
  vertex 0.0083052 0.0282522 0.2575
  vertex 0.02 -2.5e-05 0.2575
  endloop
 endfacet

 facet normal 0.682298 -0.708087 0.181887
  outer loop
  vertex 0.055503 -0.0361888 0.0745711
  vertex 0.049419 -0.0470562 0.0550303
  vertex 0.0667709 -0.0363742 0.0338413
  endloop
 endfacet

 facet normal 0.732165 -0.66039 0.166794
  outer loop
  vertex 0.055503 -0.0361888 0.0745711
  vertex 0.0473794 -0.0365005 0.109
  vertex 0.049419 -0.0470562 0.0550303
  endloop
 endfacet

 facet normal 0.742297 -0.655541 0.138784
  outer loop
  vertex 0.0473794 -0.0365005 0.109
  vertex 0.0316672 -0.0558886 0.108997
  vertex 0.049419 -0.0470562 0.0550303
  endloop
 endfacet

 facet normal 0.705926 -0.697364 0.123906
  outer loop
  vertex 0.0316672 -0.0558886 0.108997
  vertex 0.0381472 -0.0566472 0.061733
  vertex 0.049419 -0.0470562 0.0550303
  endloop
 endfacet

 facet normal 0.789371 -0.603204 0.114189
  outer loop
  vertex 0.0316672 -0.0558886 0.108997
  vertex 0.0473794 -0.0365005 0.109
  vertex 0.0435609 -0.0368734 0.134611
  endloop
 endfacet

 facet normal 0.790062 -0.608653 0.0730998
  outer loop
  vertex 0.0278283 -0.0550588 0.16698
  vertex 0.0316672 -0.0558886 0.108997
  vertex 0.0435609 -0.0368734 0.134611
  endloop
 endfacet

 facet normal 0.837205 -0.544658 0.0493442
  outer loop
  vertex 0.0435609 -0.0368734 0.134611
  vertex 0.0396333 -0.0365559 0.186097
  vertex 0.0336978 -0.0461775 0.184132
  endloop
 endfacet

 facet normal 0.813939 -0.578902 0.048745
  outer loop
  vertex 0.0435609 -0.0368734 0.134611
  vertex 0.0336978 -0.0461775 0.184132
  vertex 0.0278283 -0.0550588 0.16698
  endloop
 endfacet

 facet normal 0.784482 -0.619287 0.0327466
  outer loop
  vertex 0.025175 -0.0531847 0.286477
  vertex 0.0278283 -0.0550588 0.16698
  vertex 0.0336978 -0.0461775 0.184132
  endloop
 endfacet

 facet normal 0.867039 -0.497131 0.0332288
  outer loop
  vertex 0.0396333 -0.0365559 0.186097
  vertex 0.0366956 -0.0364197 0.286499
  vertex 0.0336978 -0.0461775 0.184132
  endloop
 endfacet

 facet normal 0.853403 -0.520146 0.0339492
  outer loop
  vertex 0.0366956 -0.0364197 0.286499
  vertex 0.0315769 -0.0452374 0.2865
  vertex 0.0336978 -0.0461775 0.184132
  endloop
 endfacet

 facet normal 0.793482 -0.60764 0.0340402
  outer loop
  vertex 0.0336978 -0.0461775 0.184132
  vertex 0.0315769 -0.0452374 0.2865
  vertex 0.025175 -0.0531847 0.286477
  endloop
 endfacet

 facet normal 0.0050794 -0.999866 0.0155779
  outer loop
  vertex -0.0152924 -0.0567955 0.116945
  vertex 0.0065648 -0.0560611 0.159204
  vertex -0.00493888 -0.0555115 0.243607
  endloop
 endfacet

 facet normal -0.0224166 -0.999645 0.014379
  outer loop
  vertex -0.00493888 -0.0555115 0.243607
  vertex -0.0410742 -0.0544913 0.241005
  vertex -0.0152924 -0.0567955 0.116945
  endloop
 endfacet

 facet normal -0.0578584 -0.998236 0.0132826
  outer loop
  vertex -0.0627597 -0.0539902 0.130195
  vertex -0.0152924 -0.0567955 0.116945
  vertex -0.0410742 -0.0544913 0.241005
  endloop
 endfacet

 facet normal 0.0246216 -0.999495 0.020102
  outer loop
  vertex 0.0316672 -0.0558886 0.108997
  vertex 0.0065648 -0.0560611 0.159204
  vertex -0.0152924 -0.0567955 0.116945
  endloop
 endfacet

 facet normal -0.0164391 -0.999721 0.0169844
  outer loop
  vertex -0.0341767 -0.0572325 0.0651134
  vertex 0.0078775 -0.0577751 0.0728039
  vertex -0.0152924 -0.0567955 0.116945
  endloop
 endfacet

 facet normal -0.0563563 -0.998298 0.0150195
  outer loop
  vertex -0.0152924 -0.0567955 0.116945
  vertex -0.0627597 -0.0539902 0.130195
  vertex -0.0341767 -0.0572325 0.0651134
  endloop
 endfacet

 facet normal 0.0231074 -0.999483 0.022372
  outer loop
  vertex -0.0152924 -0.0567955 0.116945
  vertex 0.0078775 -0.0577751 0.0728039
  vertex 0.0316672 -0.0558886 0.108997
  endloop
 endfacet

 facet normal 0.0507585 -0.998573 0.0165779
  outer loop
  vertex 0.0316672 -0.0558886 0.108997
  vertex 0.0278283 -0.0550588 0.16698
  vertex 0.0065648 -0.0560611 0.159204
  endloop
 endfacet

 facet normal 0.0312275 -0.999439 0.012063
  outer loop
  vertex -0.00493888 -0.0555115 0.243607
  vertex 0.0065648 -0.0560611 0.159204
  vertex 0.0278283 -0.0550588 0.16698
  endloop
 endfacet

 facet normal 0.0521138 -0.998392 0.0222891
  outer loop
  vertex 0.0078775 -0.0577751 0.0728039
  vertex 0.0381472 -0.0566472 0.061733
  vertex 0.0316672 -0.0558886 0.108997
  endloop
 endfacet

 facet normal 0.0442782 -0.998772 0.0222128
  outer loop
  vertex 0.0278283 -0.0550588 0.16698
  vertex 0.025175 -0.0531847 0.286477
  vertex -0.00493888 -0.0555115 0.243607
  endloop
 endfacet

 facet normal 0.0181191 -0.999264 0.0337959
  outer loop
  vertex 0.025175 -0.0531847 0.286477
  vertex -0.018987 -0.0539451 0.2865
  vertex -0.00493888 -0.0555115 0.243607
  endloop
 endfacet

 facet normal -0.0224293 -0.999497 0.0224396
  outer loop
  vertex -0.00493888 -0.0555115 0.243607
  vertex -0.018987 -0.0539451 0.2865
  vertex -0.0410742 -0.0544913 0.241005
  endloop
 endfacet

 facet normal -0.0566966 -0.997921 0.0306587
  outer loop
  vertex -0.062951 -0.0514728 0.2865
  vertex -0.0410742 -0.0544913 0.241005
  vertex -0.018987 -0.0539451 0.2865
  endloop
 endfacet

 facet normal -0.0844982 -0.996217 0.0202831
  outer loop
  vertex -0.062951 -0.0514728 0.2865
  vertex -0.0627597 -0.0539902 0.130195
  vertex -0.0410742 -0.0544913 0.241005
  endloop
 endfacet

 facet normal -0.0840817 -0.996402 0.0106793
  outer loop
  vertex -0.0600371 -0.0554404 0.041144
  vertex -0.0341767 -0.0572325 0.0651134
  vertex -0.0627597 -0.0539902 0.130195
  endloop
 endfacet

 facet normal -0.765458 0.642875 -0.0280323
  outer loop
  vertex -0.0655427 0.0486039 0.031319
  vertex -0.0736745 0.0381397 0.00181383
  vertex -0.0677903 0.0501762 0.117884
  endloop
 endfacet

 facet normal -0.712354 0.700915 -0.03564
  outer loop
  vertex -0.0595881 0.054517 0.04159
  vertex -0.0655427 0.0486039 0.031319
  vertex -0.0677903 0.0501762 0.117884
  endloop
 endfacet

 facet normal -0.82747 0.561313 -0.0148427
  outer loop
  vertex -0.0727859 0.041876 0.110818
  vertex -0.0677903 0.0501762 0.117884
  vertex -0.0736745 0.0381397 0.00181383
  endloop
 endfacet

 facet normal -0.712585 0.701033 -0.027849
  outer loop
  vertex -0.0628234 0.0560404 0.127996
  vertex -0.0595881 0.054517 0.04159
  vertex -0.0677903 0.0501762 0.117884
  endloop
 endfacet

 facet normal -0.843791 0.536667 -0.00222486
  outer loop
  vertex -0.0677903 0.0501762 0.117884
  vertex -0.0727859 0.041876 0.110818
  vertex -0.0677349 0.0509732 0.286487
  endloop
 endfacet

 facet normal -0.784421 0.620181 -0.00768958
  outer loop
  vertex -0.0677349 0.0509732 0.286487
  vertex -0.0628234 0.0560404 0.127996
  vertex -0.0677903 0.0501762 0.117884
  endloop
 endfacet

 facet normal -0.893653 0.448673 0.00883059
  outer loop
  vertex -0.0677349 0.0509732 0.286487
  vertex -0.0727859 0.041876 0.110818
  vertex -0.0713459 0.0436808 0.286489
  endloop
 endfacet

 facet normal -0.758423 0.65176 -0.00159594
  outer loop
  vertex -0.062951 0.0565879 0.2865
  vertex -0.0628234 0.0560404 0.127996
  vertex -0.0677349 0.0509732 0.286487
  endloop
 endfacet

 facet normal 0 1 0
  outer loop
  vertex 0.0278317 0.0585 0.065905
  vertex 0.0155575 0.0585 0.036857
  vertex -0.0186481 0.0585104 0.0703428
  endloop
 endfacet

 facet normal 0 1 0
  outer loop
  vertex 0.0278317 0.0585 0.065905
  vertex 0.0505697 0.0585 0.05057
  vertex 0.0155575 0.0585 0.036857
  endloop
 endfacet

 facet normal 0 1 0
  outer loop
  vertex -2.50768e-05 0.0585 0.0400051
  vertex -0.0186481 0.0585104 0.0703428
  vertex 0.0155575 0.0585 0.036857
  endloop
 endfacet

 facet normal 0 1 0
  outer loop
  vertex 0.0282699 0.0585 0.0282881
  vertex 0.0155575 0.0585 0.036857
  vertex 0.0505697 0.0585 0.05057
  endloop
 endfacet

 facet normal 0 1 0
  outer loop
  vertex -0.0186481 0.0585104 0.0703428
  vertex -0.0156036 0.0585 0.0368381
  vertex -0.0505696 0.0585 0.05057
  endloop
 endfacet

 facet normal 0 1 0
  outer loop
  vertex -0.0156036 0.0585 0.0368381
  vertex -0.0186481 0.0585104 0.0703428
  vertex -2.50768e-05 0.0585 0.0400051
  endloop
 endfacet

 facet normal 0 1 0
  outer loop
  vertex -0.0283052 0.0585 0.0282521
  vertex -0.0505696 0.0585 0.05057
  vertex -0.0156036 0.0585 0.0368381
  endloop
 endfacet

 facet normal 0 1 0
  outer loop
  vertex -0.0505696 0.0585 0.05057
  vertex -0.0283052 0.0585 0.0282521
  vertex -0.0659054 0.0585 0.027832
  endloop
 endfacet

 facet normal 0 1 0
  outer loop
  vertex -0.0368668 0.0585 0.015534
  vertex -0.0659054 0.0585 0.027832
  vertex -0.0283052 0.0585 0.0282521
  endloop
 endfacet

 facet normal 0 1 0
  outer loop
  vertex -0.0659054 0.0585 0.027832
  vertex -0.0368668 0.0585 0.015534
  vertex -0.0715303 0.0585 0
  endloop
 endfacet

 facet normal 0 1 0
  outer loop
  vertex -0.04 0.0585 -2.49743e-05
  vertex -0.0715303 0.0585 0
  vertex -0.0368668 0.0585 0.015534
  endloop
 endfacet

 facet normal 0 1 0
  outer loop
  vertex -0.0715303 0.0585 0
  vertex -0.04 0.0585 -2.49743e-05
  vertex -0.0660626 0.0584876 -0.0281727
  endloop
 endfacet

 facet normal 0 1 0
  outer loop
  vertex -0.0368473 0.0585 -0.015581
  vertex -0.0660626 0.0584876 -0.0281727
  vertex -0.04 0.0585 -2.49743e-05
  endloop
 endfacet

 facet normal 0 1 0
  outer loop
  vertex -0.0660626 0.0584876 -0.0281727
  vertex -0.0368473 0.0585 -0.015581
  vertex -0.0507603 0.0584917 -0.050682
  endloop
 endfacet

 facet normal 0 1 0
  outer loop
  vertex -0.0282699 0.0585 -0.028288
  vertex -0.0507603 0.0584917 -0.050682
  vertex -0.0368473 0.0585 -0.015581
  endloop
 endfacet

 facet normal 0 1 0
  outer loop
  vertex -0.0281079 0.058456 -0.0663127
  vertex -0.0507603 0.0584917 -0.050682
  vertex -0.0155575 0.0585 -0.0368569
  endloop
 endfacet

 facet normal 0 1 0
  outer loop
  vertex -0.0282699 0.0585 -0.028288
  vertex -0.0155575 0.0585 -0.0368569
  vertex -0.0507603 0.0584917 -0.050682
  endloop
 endfacet

 facet normal 0 1 0
  outer loop
  vertex -0.0281079 0.058456 -0.0663127
  vertex -0.0155575 0.0585 -0.0368569
  vertex 0 0.0585 -0.07153
  endloop
 endfacet

 facet normal 0 1 0
  outer loop
  vertex 2.50489e-05 0.0585 -0.040005
  vertex 0 0.0585 -0.07153
  vertex -0.0155575 0.0585 -0.0368569
  endloop
 endfacet

 facet normal 0 1 0
  outer loop
  vertex 0 0.0585 -0.07153
  vertex 2.50489e-05 0.0585 -0.040005
  vertex 0.0280357 0.0584881 -0.0661569
  endloop
 endfacet

 facet normal 0 1 0
  outer loop
  vertex 0.0156036 0.0585 -0.036838
  vertex 0.0280357 0.0584881 -0.0661569
  vertex 2.50489e-05 0.0585 -0.040005
  endloop
 endfacet

 facet normal 0 1 0
  outer loop
  vertex 0.0280357 0.0584881 -0.0661569
  vertex 0.0156036 0.0585 -0.036838
  vertex 0.0510004 0.0584906 -0.0505295
  endloop
 endfacet

 facet normal 0 1 0
  outer loop
  vertex 0.0283052 0.0585 -0.028252
  vertex 0.0510004 0.0584906 -0.0505295
  vertex 0.0156036 0.0585 -0.036838
  endloop
 endfacet

 facet normal 0 1 0
  outer loop
  vertex 0.0510004 0.0584906 -0.0505295
  vertex 0.0283052 0.0585 -0.028252
  vertex 0.0660468 0.0584939 -0.0278875
  endloop
 endfacet

 facet normal 0 1 0
  outer loop
  vertex 0.0368668 0.0585 -0.015534
  vertex 0.0660468 0.0584939 -0.0278875
  vertex 0.0283052 0.0585 -0.028252
  endloop
 endfacet

 facet normal 0 1 0
  outer loop
  vertex 0.0660468 0.0584939 -0.0278875
  vertex 0.0368668 0.0585 -0.015534
  vertex 0.07153 0.0585 0
  endloop
 endfacet

 facet normal 0 1 0
  outer loop
  vertex 0.04 0.0585 2.5034e-05
  vertex 0.07153 0.0585 0
  vertex 0.0368668 0.0585 -0.015534
  endloop
 endfacet

 facet normal 0 1 0
  outer loop
  vertex 0.07153 0.0585 0
  vertex 0.04 0.0585 2.5034e-05
  vertex 0.0659054 0.0585 0.027832
  endloop
 endfacet

 facet normal 0 1 0
  outer loop
  vertex 0.0368473 0.0585 0.015581
  vertex 0.0659054 0.0585 0.027832
  vertex 0.04 0.0585 2.5034e-05
  endloop
 endfacet

 facet normal 0 1 0
  outer loop
  vertex 0.0659054 0.0585 0.027832
  vertex 0.0368473 0.0585 0.015581
  vertex 0.0505697 0.0585 0.05057
  endloop
 endfacet

 facet normal 0 1 0
  outer loop
  vertex 0.0282699 0.0585 0.0282881
  vertex 0.0505697 0.0585 0.05057
  vertex 0.0368473 0.0585 0.015581
  endloop
 endfacet

 facet normal -0.75415 -0.656603 -0.0113908
  outer loop
  vertex -0.0600371 -0.0554404 0.041144
  vertex -0.0627597 -0.0539902 0.130195
  vertex -0.0679153 -0.0463202 0.0263533
  endloop
 endfacet

 facet normal -0.808895 -0.587941 -0.00367112
  outer loop
  vertex -0.0679153 -0.0463202 0.0263533
  vertex -0.0627597 -0.0539902 0.130195
  vertex -0.0690959 -0.0455228 0.2076
  endloop
 endfacet

 facet normal -0.773643 -0.633527 0.0109511
  outer loop
  vertex -0.0627597 -0.0539902 0.130195
  vertex -0.062951 -0.0514728 0.2865
  vertex -0.0690959 -0.0455228 0.2076
  endloop
 endfacet

 facet normal -0.88109 -0.472945 -0.00160733
  outer loop
  vertex -0.0733138 -0.0365 0.109
  vertex -0.0736296 -0.036768 0.0122024
  vertex -0.0679153 -0.0463202 0.0263533
  endloop
 endfacet

 facet normal -0.876517 -0.481369 -0.00113783
  outer loop
  vertex -0.0679153 -0.0463202 0.0263533
  vertex -0.0690959 -0.0455228 0.2076
  vertex -0.0733138 -0.0365 0.109
  endloop
 endfacet

 facet normal -0.812296 -0.58296 0.0182561
  outer loop
  vertex -0.0684121 -0.0445191 0.2865
  vertex -0.0690959 -0.0455228 0.2076
  vertex -0.062951 -0.0514728 0.2865
  endloop
 endfacet

 facet normal -0.897724 -0.440322 0.0144212
  outer loop
  vertex -0.0726453 -0.0346966 0.286502
  vertex -0.0690959 -0.0455228 0.2076
  vertex -0.0684121 -0.0445191 0.2865
  endloop
 endfacet

 facet normal -0.923856 -0.382618 0.00963873
  outer loop
  vertex -0.0733138 -0.0365 0.109
  vertex -0.0690959 -0.0455228 0.2076
  vertex -0.0726453 -0.0346966 0.286502
  endloop
 endfacet

 facet normal 0 -1 0
  outer loop
  vertex 0.0668321 -0.0585 0.028208
  vertex 0.0512882 -0.0585 0.0512651
  vertex 0.0726316 -0.0584956 -0.000130951
  endloop
 endfacet

 facet normal 0 -1 0
  outer loop
  vertex 0.0282383 -0.0585 0.066819
  vertex -1.81533e-05 -0.0585 -0.0725307
  vertex 0.0512882 -0.0585 0.0512651
  endloop
 endfacet

 facet normal 0 -1 0
  outer loop
  vertex -1.81533e-05 -0.0585 -0.0725307
  vertex 0.0282181 -0.0585 -0.066828
  vertex 0.0512882 -0.0585 0.0512651
  endloop
 endfacet

 facet normal 0 -1 0
  outer loop
  vertex 0.0282181 -0.0585 -0.066828
  vertex 0.0512728 -0.0585 -0.05128
  vertex 0.0512882 -0.0585 0.0512651
  endloop
 endfacet

 facet normal 0 -1 0
  outer loop
  vertex 0.0512728 -0.0585 -0.05128
  vertex 0.0668236 -0.0585 -0.028228
  vertex 0.0512882 -0.0585 0.0512651
  endloop
 endfacet

 facet normal 0 -1 0
  outer loop
  vertex 0.0668236 -0.0585 -0.028228
  vertex 0.0726316 -0.0584956 -0.000130951
  vertex 0.0512882 -0.0585 0.0512651
  endloop
 endfacet

 facet normal 0 -1 0
  outer loop
  vertex 0.0282383 -0.0585 0.066819
  vertex -0.0216815 -0.058503 0.0703905
  vertex -1.81533e-05 -0.0585 -0.0725307
  endloop
 endfacet

 facet normal 0 -1 0
  outer loop
  vertex -0.0282903 -0.0584993 -0.0669361
  vertex -1.81533e-05 -0.0585 -0.0725307
  vertex -0.0216815 -0.058503 0.0703905
  endloop
 endfacet

 facet normal 0 -1 0
  outer loop
  vertex -0.0282903 -0.0584993 -0.0669361
  vertex -0.0216815 -0.058503 0.0703905
  vertex -0.0512882 -0.0585 -0.051265
  endloop
 endfacet

 facet normal 0 -1 0
  outer loop
  vertex -0.0216815 -0.058503 0.0703905
  vertex -0.0512728 -0.0585 0.0512801
  vertex -0.0512882 -0.0585 -0.051265
  endloop
 endfacet

 facet normal 0 -1 0
  outer loop
  vertex -0.0512728 -0.0585 0.0512801
  vertex -0.0668236 -0.0585 0.028228
  vertex -0.0512882 -0.0585 -0.051265
  endloop
 endfacet

 facet normal 0 -1 0
  outer loop
  vertex -0.0668236 -0.0585 0.028228
  vertex -0.0725303 -0.0585 1.10269e-05
  vertex -0.0512882 -0.0585 -0.051265
  endloop
 endfacet

 facet normal 0 -1 0
  outer loop
  vertex -0.0668321 -0.0585 -0.028208
  vertex -0.0512882 -0.0585 -0.051265
  vertex -0.0725303 -0.0585 1.10269e-05
  endloop
 endfacet

 facet normal 0.788659 0.613999 0.0319776
  outer loop
  vertex 0.0381424 0.0435461 0.199607
  vertex 0.0421726 0.0423252 0.14127
  vertex 0.0263444 0.0580176 0.211484
  endloop
 endfacet

 facet normal 0.816077 0.577479 0.0231499
  outer loop
  vertex 0.0352504 0.0453074 0.286493
  vertex 0.0381424 0.0435461 0.199607
  vertex 0.0263444 0.0580176 0.211484
  endloop
 endfacet

 facet normal 0.749792 0.660325 0.042224
  outer loop
  vertex 0.0263444 0.0580176 0.211484
  vertex 0.0421726 0.0423252 0.14127
  vertex 0.0311517 0.0572538 0.112568
  endloop
 endfacet

 facet normal 0.746467 0.66092 0.0772843
  outer loop
  vertex 0.0311517 0.0572538 0.112568
  vertex 0.0421726 0.0423252 0.14127
  vertex 0.0469918 0.0416045 0.108267
  endloop
 endfacet

 facet normal 0.769656 0.638061 0.0225325
  outer loop
  vertex 0.0250336 0.0577922 0.2865
  vertex 0.0352504 0.0453074 0.286493
  vertex 0.0263444 0.0580176 0.211484
  endloop
 endfacet

 facet normal 0.698557 0.710231 0.08712
  outer loop
  vertex 0.0382675 0.0560295 0.0609622
  vertex 0.0311517 0.0572538 0.112568
  vertex 0.0469918 0.0416045 0.108267
  endloop
 endfacet

 facet normal 0.67658 0.727989 0.110778
  outer loop
  vertex 0.0469918 0.0416045 0.108267
  vertex 0.0567821 0.0391208 0.0678304
  vertex 0.0382675 0.0560295 0.0609622
  endloop
 endfacet

 facet normal 0.641765 0.758846 0.110864
  outer loop
  vertex 0.0548181 0.0436676 0.0488188
  vertex 0.0382675 0.0560295 0.0609622
  vertex 0.0567821 0.0391208 0.0678304
  endloop
 endfacet

 facet normal 0.62383 0.770844 0.128982
  outer loop
  vertex 0.0567821 0.0391208 0.0678304
  vertex 0.071432 0.0354634 0.0199449
  vertex 0.0548181 0.0436676 0.0488188
  endloop
 endfacet

 facet normal 0.0448698 0.998991 0.00192246
  outer loop
  vertex 0.0250336 0.0577922 0.2865
  vertex 0.0263444 0.0580176 0.211484
  vertex -0.0066252 0.0592352 0.1977
  endloop
 endfacet

 facet normal 0.0189779 0.999817 0.00242444
  outer loop
  vertex 0.0250336 0.0577922 0.2865
  vertex -0.0066252 0.0592352 0.1977
  vertex -0.0189829 0.0589502 0.2865
  endloop
 endfacet

 facet normal 0.0450886 0.998977 -0.00357984
  outer loop
  vertex 0.0263444 0.0580176 0.211484
  vertex 0.0311517 0.0572538 0.112568
  vertex -0.0066252 0.0592352 0.1977
  endloop
 endfacet

 facet normal -0.0222984 0.99973 -0.0064829
  outer loop
  vertex -0.0066252 0.0592352 0.1977
  vertex -0.0153145 0.0584222 0.109
  vertex -0.0406781 0.0582318 0.19774
  endloop
 endfacet

 facet normal 0.0188198 0.999782 -0.00900163
  outer loop
  vertex 0.0311517 0.0572538 0.112568
  vertex -0.0153145 0.0584222 0.109
  vertex -0.0066252 0.0592352 0.1977
  endloop
 endfacet

 facet normal -0.0219209 0.999759 -0.000561851
  outer loop
  vertex -0.0066252 0.0592352 0.1977
  vertex -0.0406781 0.0582318 0.19774
  vertex -0.0189829 0.0589502 0.2865
  endloop
 endfacet

 facet normal -0.054374 0.998521 -0.000258135
  outer loop
  vertex -0.062951 0.0565879 0.2865
  vertex -0.0189829 0.0589502 0.2865
  vertex -0.0406781 0.0582318 0.19774
  endloop
 endfacet

 facet normal -0.0819044 0.996625 -0.00554467
  outer loop
  vertex -0.0628234 0.0560404 0.127996
  vertex -0.062951 0.0565879 0.2865
  vertex -0.0406781 0.0582318 0.19774
  endloop
 endfacet

 facet normal -0.0560388 0.998374 -0.010425
  outer loop
  vertex -0.0628234 0.0560404 0.127996
  vertex -0.0406781 0.0582318 0.19774
  vertex -0.0153145 0.0584222 0.109
  endloop
 endfacet

 facet normal -0.0506229 0.998549 -0.018375
  outer loop
  vertex -0.0153145 0.0584222 0.109
  vertex -0.0269649 0.0575126 0.0674405
  vertex -0.0628234 0.0560404 0.127996
  endloop
 endfacet

 facet normal -0.0109514 0.999738 -0.0201075
  outer loop
  vertex 0.00624791 0.0579132 0.0725493
  vertex -0.0269649 0.0575126 0.0674405
  vertex -0.0153145 0.0584222 0.109
  endloop
 endfacet

 facet normal 0.0247511 0.999586 -0.0146793
  outer loop
  vertex 0.0311517 0.0572538 0.112568
  vertex 0.00624791 0.0579132 0.0725493
  vertex -0.0153145 0.0584222 0.109
  endloop
 endfacet

 facet normal 0.0540177 0.998402 -0.0166088
  outer loop
  vertex 0.0382675 0.0560295 0.0609622
  vertex 0.00624791 0.0579132 0.0725493
  vertex 0.0311517 0.0572538 0.112568
  endloop
 endfacet

 facet normal -0.0773778 0.996713 -0.0240207
  outer loop
  vertex -0.0595881 0.054517 0.04159
  vertex -0.0628234 0.0560404 0.127996
  vertex -0.0269649 0.0575126 0.0674405
  endloop
 endfacet

endsolid AssimpScene
